<?xml version="1.0" standalone="no"?><!DOCTYPE svg PUBLIC "-//W3C//DTD SVG 1.1//EN" "http://www.w3.org/Graphics/SVG/1.1/DTD/svg11.dtd"><svg t="1786927719494" class="icon" viewBox="0 0 1024 1024" version="1.1" xmlns="http://www.w3.org/2000/svg" p-id="10265" xmlns:xlink="http://www.w3.org/1999/xlink" width="200" height="200"><path d="M911.216 322.084c37.045 37.092 37.045 97.23 0 134.322L527.918 840.18c-37.046 37.092-97.11 37.092-134.155 0L163.784 609.916c-37.045-37.092-37.045-97.23 0-134.322l114.99-115.132c15.876-15.897 41.618-15.897 57.494 0 15.877 15.896 15.877 41.67 0 57.566L221.28 533.161c-5.292 5.299-5.292 13.89 0 19.188l229.979 230.266c5.292 5.299 13.873 5.299 19.165 0l201.231-201.482-277.89-278.238c-15.878-15.896-15.878-41.67 0-57.566L547.081 91.82c37.046-37.092 97.11-37.092 134.155 0l229.979 230.265z m-57.188 57.06L623.857 148.971c-5.297-5.296-13.885-5.296-19.181 0L480 273.648 729.352 523l124.676-124.676c5.296-5.296 5.296-13.884 0-19.18zM583.328 879C605.791 879 624 897.132 624 919.5S605.79 960 583.328 960H123.672C101.209 960 83 941.868 83 919.5s18.21-40.5 40.672-40.5h459.656z" fill="#2c2c2c" p-id="10266"></path></svg>